<svg width="120" height="120" viewBox="0 0 120 120" fill="none" xmlns="http://www.w3.org/2000/svg">
  <style>
     path {
      fill: #060606;
    }
    circle {
      fill: #e04f2e;
    }
    @media (prefers-color-scheme: dark) {
      path {
        fill: #F8F8F8;
      }
      circle {
        fill: #ec502d;
      }
    }
  </style>
  <circle cx="75.1751" cy="57.8979" r="18.677" fill="limegreen"/>
  <path d="M108 60C108 86.5097 86.5096 108 60 108C33.4903 108 12 86.5097 12 60C12 57.328 12.2183 54.707 12.6381 52.1539H0.50839C0.17301 54.7217 0 57.3407 0 60C0 93.1371 26.8629 120 60 120C93.137 120 120 93.1371 120 60C120 57.3407 119.827 54.7217 119.492 52.1539H107.362C107.782 54.707 108 57.328 108 60Z" fill="gray"/>
  <path d="M16.0751 40.6154C23.5239 23.7614 40.3884 12 60 12C79.6115 12 96.476 23.7614 103.925 40.6154H116.8C108.739 16.9907 86.3537 0 60 0C33.6462 0 11.2608 16.9907 3.20039 40.6154H16.0751Z" fill="gray"/>
  <path d="M12 52.1539H108.093V63.6923H12V52.1539Z" fill="gray"/>
</svg>
