<svg xmlns="http://www.w3.org/2000/svg" viewBox="20 55 160.4 90">
  <g>
    <path fill="#e04e2d" d="M145.8 100c0 24.7-20 44.7-44.7 44.7s-44.7-20-44.7-44.7 20-44.7 44.7-44.7 44.7 20 44.7 44.7z" data-color="1"></path>
    <path fill="#191919" d="M101.1 145c-24.8 0-45-20.1-45-45s20.1-45 45-45 45 20.1 45 45c-.1 24.8-20.2 45-45 45zm0-89.5c-24.5 0-44.5 19.9-44.5 44.5s19.9 44.5 44.5 44.5 44.5-19.9 44.5-44.5c-.1-24.6-20-44.5-44.5-44.5z" data-color="2"></path>
    <path fill="#191919" d="M90.1 97.3l2.3 6.6 1.2 4.9 1.2 2.2-1.7.9-2.7-2 .2 2.3-1.8.2-1.1-1.2-1-2.9-1.4-1.6-1.2-2.2-3.7-2.4.5 6.3-3.4 6.9-1.3.1-1.4-1.9.4-4.6.9-3.6-1.7-4.9-5.8-.2 4-6.7 3.5-.3 14 4.1z" data-color="2"></path>
    <path fill="#bbb7a9" d="M20.1 99.2l7.4-4.9 6.6-2.1L41 87l6.9-1.6 8.6.3 5.9 1.2 4.8-.2 4.5-.4 4.3-.1 4.1 3.4 2.1.8 5.9 1 2.6.8 2.5 2.8 3 2.8 3.1 4.3 1.1 1.4-1.7.9-1.5.1-3.8-2.9-1.6-1.4-3.8-2.9-4.5.1-2.8-.8-3.2.8-3.3-.2-4.1 2.1 1.7 2.1 2.4 1.8 2.8.8 3.1 1.2 2.5 2.8.5 2.5-.6 1.8-1.5.1-1.8.2-1.9-1.6-2.4-1.1-1.6-1.4-2.6-1.3-4.1-.9-4.9-.8-3.8-.2-3.2-1.5-2.2-1.8-1.4-1.9-5.4 4-4.6 4.9-7.3 8.5-12.1 7.8" data-color="3"></path>
    <path fill="#191919" d="M21.8 125.6l-.3-.4 12.1-7.7L41 109l4.6-5 5.7-4.2 1.6 2.1 2.1 1.8 3.1 1.5 3.7.2 4.9.8 4.1.9 2.7 1.3 1.7 1.4 2.4 1.1 1.8 1.5 3-.3.5-1.6-.4-2.4-2.4-2.7-3.1-1.2-2.9-.8-2.5-1.8-1.9-2.4 4.4-2.3 3.3.2 3.2-.8 2.9.8 4.6-.1 3.9 3 1.6 1.4 3.7 2.9 1.4-.1 1.4-.7-.9-1.2-3.2-4.4-3-2.7-2.5-2.8-2.5-.7-5.9-1-2.2-.9-4-3.4-4.2.1-4.5.5-4.8.2-6-1.3-8.4-.3-6.8 1.6-6.9 5.2-6.6 2.1-7.4 4.9-.3-.4 7.4-5 6.6-2.1 6.9-5.2 7-1.6 8.6.3 6 1.3 4.7-.2 4.5-.4 4.4-.1 4.1 3.5 2.1.8 5.8 1 2.7.8 2.6 2.9 3 2.7 3.2 4.3 1.3 1.6-2 1.1-1.6.1-3.9-3-1.6-1.4-3.8-2.9-4.5.1-2.8-.8-3.2.8-3.2-.2-3.8 2 1.5 1.9 2.4 1.8 2.8.7 3.3 1.3 2.6 2.9.5 2.6-.7 2-3.5.3-2-1.6-2.4-1.1-1.6-1.4-2.6-1.3-4.1-.9-4.9-.8-3.9-.2-3.2-1.5-2.2-1.8-1.3-1.7-5.3 3.9-4.6 4.9-7.4 8.5c.1 0-12.1 7.7-12.1 7.7z" data-color="2"></path>
    <path fill="#191919" d="M123.3 108l-.6 4.6.3 3 .8 3 .7 2.7 2-.2 1.4-.9 1.6.6 2.1-1.7-.2-2.8 1.3-2.4-.2-2.3 2.1-1.7.7-.8.4 4.5.4 4.3 2.8.3.9-3.6-.2-2.5 1.5-3.4 4.5-.4 5.7-4.3 6.1-5.6 2.9-1.8 4-.4 15.7 1.1-13.2-19.4c-.1.2-43.5 30.1-43.5 30.1z" data-color="2"></path>
    <path fill="#191919" d="M78.7 90.4l-2.9-1.7-2.6.3-5.6-.3v-.5l5.6.3 2.8-.2 3 1.8c0-.1-.3.3-.3.3z" data-color="2"></path>
    <path fill="#191919" d="M75.3 94.9l.3.4-3.4 3.2-.2-.4 3.3-3.2z" data-color="2"></path>
    <path fill="#191919" d="M51.3 100.2l-.2-2.2-2.9-3.4-7.6.7-2.4 1.2-8.2 2.8-.2-.5 8.1-2.7 2.5-1.2 7.9-.7 3.2 3.7.2 2.3h-.4z" data-color="2"></path>
    <path fill="#bbb7a9" d="M177.7 72.3l-18.9 8.2-6 .5-5.8 3.3-4.5.4-7.3 3.2-7.3 3.2-3 .3-1.9 1.2-7.8.7-2.7 1.2-5.9 2-3.9 2.1-.9 1.3 2.4 1.8 4.8-.4 2.2-1.2 3.5-.6 1.7-.9h2.8l4.3-.4 1.7 1.6 1.5-.1-.3 2-2.4 1.5-1.3 1.9-2.4 1.5.1 1.3 1.4 1.6 1.6.4 1.5.4 2.8-.2 1.8-1.9 2.3-2.2 2.4-1.5 1.9-1.2 4.3-.1 3.3.2 2.3-1.2 7-5.2 9.1-.1 18.1.8" data-color="3"></path>
    <path fill="#191919" d="M124.7 110.4l-3.2-.8-1.5-1.8-.1-1.5 2.5-1.5 1.4-1.9 2.3-1.4.3-1.6-1.3.1-1.7-1.6-4.1.4h-2.7l-1.7.9-3.4.6-2.2 1.2-4.8.4-2.7-2 1.1-1.6 3.9-2.1 5.9-2 2.7-1.3 7.7-.7 2-1.2 3-.3 14.6-6.3 4.5-.4 5.8-3.3 6-.5 18.9-8.1.2.5-19 8.2-6 .5-5.8 3.3-4.5.4-14.6 6.3-2.9.3-2 1.2-7.7.7-2.6 1.2-5.9 2-3.8 2.1-.7 1.1 2.2 1.6 4.6-.4 2.2-1.2 3.4-.6 1.8-.9h2.8l4.3-.4 1.7 1.6 1.7-.2-.4 2.5-2.4 1.5-1.4 1.9-2.3 1.4.1 1 1.3 1.5 3 .7 2.6-.2 1.8-1.9 2.3-2.2 4.4-2.7 4.3-.1 3.3.2 2.3-1.2 7-5.3 9.1-.1 18.1.8v.5l-18.1-.8-9 .1-6.9 5.2-2.4 1.3-3.4-.2-4.2.1-4.3 2.6-2.3 2.2-1.9 2-3.2.2z" data-color="2"></path>
    <path fill="#191919" d="M126.2 101.8l-.2-.4 4.8-2.4 1.7-3.4 2.1-2 .4.4-2.1 1.9-1.7 3.5c0-.1-5 2.4-5 2.4z" data-color="2"></path>
  </g>
</svg>
